<mxfile host="app.diagrams.net" modified="2020-12-10T03:37:04.823Z" agent="5.0 (Windows NT 10.0; Win64; x64) AppleWebKit/537.36 (KHTML, like Gecko) Chrome/87.0.4280.88 Safari/537.36" etag="6U0G1fh1Vy83AP4YCWMm" version="14.0.0" type="github" pages="2">
  <diagram id="IyBNO4WMqh4tq5qnDeRS" name="Multi-Site HLD">
    <mxGraphModel dx="2062" dy="1065" grid="1" gridSize="10" guides="1" tooltips="1" connect="1" arrows="1" fold="1" page="1" pageScale="1" pageWidth="1700" pageHeight="1100" math="0" shadow="0">
      <root>
        <mxCell id="zyCjnop6QbWn4T4vvVL7-0" />
        <mxCell id="zyCjnop6QbWn4T4vvVL7-1" parent="zyCjnop6QbWn4T4vvVL7-0" />
        <mxCell id="UkyxxvgO4Va6mRZhKOwy-0" value="" style="pointerEvents=1;shadow=0;dashed=0;html=1;strokeColor=none;fillColor=#434445;aspect=fixed;labelPosition=center;verticalLabelPosition=bottom;verticalAlign=top;align=center;outlineConnect=0;shape=mxgraph.vvd.datacenter;" vertex="1" parent="zyCjnop6QbWn4T4vvVL7-1">
          <mxGeometry x="330" y="270" width="120" height="88.8" as="geometry" />
        </mxCell>
        <mxCell id="UkyxxvgO4Va6mRZhKOwy-1" value="" style="pointerEvents=1;shadow=0;dashed=0;html=1;strokeColor=none;fillColor=#434445;aspect=fixed;labelPosition=center;verticalLabelPosition=bottom;verticalAlign=top;align=center;outlineConnect=0;shape=mxgraph.vvd.datacenter;" vertex="1" parent="zyCjnop6QbWn4T4vvVL7-1">
          <mxGeometry x="150" y="270" width="120" height="88.8" as="geometry" />
        </mxCell>
        <mxCell id="UkyxxvgO4Va6mRZhKOwy-3" value="Region (City)" style="text;html=1;align=center;verticalAlign=middle;resizable=0;points=[];autosize=1;fontStyle=1" vertex="1" parent="zyCjnop6QbWn4T4vvVL7-1">
          <mxGeometry x="255" y="378.8" width="90" height="20" as="geometry" />
        </mxCell>
        <mxCell id="UkyxxvgO4Va6mRZhKOwy-5" value="&lt;b&gt;AZ1&lt;/b&gt;" style="text;html=1;align=center;verticalAlign=middle;resizable=0;points=[];autosize=1;" vertex="1" parent="zyCjnop6QbWn4T4vvVL7-1">
          <mxGeometry x="190" y="358.8" width="40" height="20" as="geometry" />
        </mxCell>
        <mxCell id="UkyxxvgO4Va6mRZhKOwy-6" value="&lt;b&gt;AZ2&lt;/b&gt;" style="text;html=1;align=center;verticalAlign=middle;resizable=0;points=[];autosize=1;" vertex="1" parent="zyCjnop6QbWn4T4vvVL7-1">
          <mxGeometry x="370" y="358.8" width="40" height="20" as="geometry" />
        </mxCell>
        <mxCell id="UkyxxvgO4Va6mRZhKOwy-7" value="" style="pointerEvents=1;shadow=0;dashed=0;html=1;strokeColor=none;fillColor=#434445;aspect=fixed;labelPosition=center;verticalLabelPosition=bottom;verticalAlign=top;align=center;outlineConnect=0;shape=mxgraph.vvd.service_provider_cloud_environment;" vertex="1" parent="zyCjnop6QbWn4T4vvVL7-1">
          <mxGeometry x="270" y="326" width="60" height="52.8" as="geometry" />
        </mxCell>
        <mxCell id="UkyxxvgO4Va6mRZhKOwy-8" value="" style="pointerEvents=1;shadow=0;dashed=0;html=1;strokeColor=none;fillColor=#434445;aspect=fixed;labelPosition=center;verticalLabelPosition=bottom;verticalAlign=top;align=center;outlineConnect=0;shape=mxgraph.vvd.telco_network;" vertex="1" parent="zyCjnop6QbWn4T4vvVL7-1">
          <mxGeometry x="680" y="420" width="306.94" height="221" as="geometry" />
        </mxCell>
        <mxCell id="UkyxxvgO4Va6mRZhKOwy-9" value="Backbone Network&lt;br&gt;9,000 MTU VPN" style="text;html=1;align=center;verticalAlign=middle;resizable=0;points=[];autosize=1;fontStyle=1;fontSize=15;" vertex="1" parent="zyCjnop6QbWn4T4vvVL7-1">
          <mxGeometry x="765" y="510.5" width="150" height="40" as="geometry" />
        </mxCell>
        <mxCell id="UkyxxvgO4Va6mRZhKOwy-10" value="" style="pointerEvents=1;shadow=0;dashed=0;html=1;strokeColor=none;fillColor=#434445;aspect=fixed;labelPosition=center;verticalLabelPosition=bottom;verticalAlign=top;align=center;outlineConnect=0;shape=mxgraph.vvd.vcenter_server;fontSize=15;" vertex="1" parent="zyCjnop6QbWn4T4vvVL7-1">
          <mxGeometry x="230" y="170" width="48" height="50" as="geometry" />
        </mxCell>
        <mxCell id="UkyxxvgO4Va6mRZhKOwy-12" value="" style="pointerEvents=1;shadow=0;dashed=0;html=1;strokeColor=none;fillColor=#434445;aspect=fixed;labelPosition=center;verticalLabelPosition=bottom;verticalAlign=top;align=center;outlineConnect=0;shape=mxgraph.vvd.vrealize_operations;fontSize=15;" vertex="1" parent="zyCjnop6QbWn4T4vvVL7-1">
          <mxGeometry x="278" y="170" width="49" height="50" as="geometry" />
        </mxCell>
        <mxCell id="UkyxxvgO4Va6mRZhKOwy-13" value="" style="pointerEvents=1;shadow=0;dashed=0;html=1;strokeColor=none;fillColor=#434445;aspect=fixed;labelPosition=center;verticalLabelPosition=bottom;verticalAlign=top;align=center;outlineConnect=0;shape=mxgraph.vvd.vm_group;fontSize=15;" vertex="1" parent="zyCjnop6QbWn4T4vvVL7-1">
          <mxGeometry x="200" y="220" width="49.5" height="50" as="geometry" />
        </mxCell>
        <mxCell id="UkyxxvgO4Va6mRZhKOwy-14" value="" style="pointerEvents=1;shadow=0;dashed=0;html=1;strokeColor=none;fillColor=#434445;aspect=fixed;labelPosition=center;verticalLabelPosition=bottom;verticalAlign=top;align=center;outlineConnect=0;shape=mxgraph.vvd.vm_group;fontSize=15;" vertex="1" parent="zyCjnop6QbWn4T4vvVL7-1">
          <mxGeometry x="249.5" y="220" width="49.5" height="50" as="geometry" />
        </mxCell>
        <mxCell id="UkyxxvgO4Va6mRZhKOwy-15" value="" style="pointerEvents=1;shadow=0;dashed=0;html=1;strokeColor=none;fillColor=#434445;aspect=fixed;labelPosition=center;verticalLabelPosition=bottom;verticalAlign=top;align=center;outlineConnect=0;shape=mxgraph.vvd.vm_group;fontSize=15;" vertex="1" parent="zyCjnop6QbWn4T4vvVL7-1">
          <mxGeometry x="299" y="220" width="49.5" height="50" as="geometry" />
        </mxCell>
        <mxCell id="UkyxxvgO4Va6mRZhKOwy-16" value="" style="pointerEvents=1;shadow=0;dashed=0;html=1;strokeColor=none;fillColor=#434445;aspect=fixed;labelPosition=center;verticalLabelPosition=bottom;verticalAlign=top;align=center;outlineConnect=0;shape=mxgraph.vvd.vm_group;fontSize=15;" vertex="1" parent="zyCjnop6QbWn4T4vvVL7-1">
          <mxGeometry x="348.5" y="220" width="49.5" height="50" as="geometry" />
        </mxCell>
        <mxCell id="UkyxxvgO4Va6mRZhKOwy-17" style="vsdxID=5;fillColor=none;gradientColor=none;labelBackgroundColor=none;rounded=0;strokeColor=none;html=1;whiteSpace=wrap;fontSize=15;" vertex="1" parent="zyCjnop6QbWn4T4vvVL7-1">
          <mxGeometry x="327" y="167" width="56" height="53" as="geometry" />
        </mxCell>
        <mxCell id="UkyxxvgO4Va6mRZhKOwy-18" style="vsdxID=6;fillColor=#000000;gradientColor=none;shape=stencil(pVpdc9w2DPw198ohCX4+p8n/yDRO7alrZxyndf99eXMSSe1K5Gn65iiglgCBxRK6i3z6+fj1x8PF6p/vb69/Pvzz9O398SK/Xax9enl8eHt6L39d5PNFPn1/fXv44+3118u3279/fL1aXv/66/Xv6xs+butMVPa6yOp/bw9iUPr25MvN/vdfb7cF5mZgrUrLiuVJTMoujz7sYpSq0fIkZmXyYiS3R+IrtqDRAbi07Rp+7wIlWYUpuDPVSKobUUbgTpPnNVgV3GmAFiXgdiZkrfzYbavcFjl4ZQLEPGDMfVISt+Dd6a2ByCrG4YE7BHdRZQRvRmsgyun6KbhVeeh555SpWRP9FrwLz7qdrFLYgkuqRut2ypuG4PUs180kpQHaWQx6b7R66dDv4pZ1Q2iHfrclDdwReGf0P8B9zdAVPCqDnlO6FSOIuYuY6iU63vTYz08vHR35VmJ1r8PkLNkLhFBOVTBOEQnBisoJ9oo7tSoMidBhjOqCLkYAa5WJU1gz9hhhjYoz2M7kCNYoO4T1BnMCadc3bra1uQQohSDI+c3oALksQeTuvQtUcHNohwQwh6YqNEkZQPaYXMXGIzaEe9vltjUQV9apmxz3RE+b1ECPGulRb3dnqBFPQYEZxSmBdIA+GMzK9APYaf+31AhTVCLgL7WDbKgdOIvZ0Izu5uT+vYdcU4yAkr0GZK3yMA9dQuSUV8kwQE6Ju0FAt1Ph8TQCF+oGO+CWWlHySgPXdWJzPXBUm9tSmKvTrZrtuvESWXUyruuCxmrkmDFKzNaxAAdqnMpDKck1W4pBQEQ70rGmdENu78hqY01D8n2HTTule8ynkok1xiLWY6vu3WlchchdYJqAAUlTAu7GScztS1PtCnWwlg5C4ZPdFNsm8Cwht+nbsRsG6IgP4x29UUij0k2MCrNJhrtvYr24OQzojgLaAZ9JL0FhzvLUQguQovigdAxdxK6XwmHdGpKbbUmF7owsG63gie5CCA5cmCCV5pu95+5kUCvyzcmgVhTlx8B4dSmlBqoJ5cGOZrLUoakcthGal89Z+215tlpr3WOomak4d5KFOH4vUYl06quPTkAwTwsJeOgvhu7spRQ9Hr6nIrGz4yfBXpoU3sk6o6ZfvCFwoIbptMJQl2lLGrinCu2M7geHCvWgVuabpWPy9R0fTW5AoIqU1iilDe41ROWGHEpM1iv0dXiF0GV7ARKErvhUFnC9mVURDCgd0F4s3g97ImdAucZZoj3M/XJ9zRaiShxdbsF+qDMMKcq2ZNAgeiMho7vB6Uz3wfFQd8HDSXAeE/Z5eijvQtkzD0jB8+jWtNtXWdsbc/TKmNFWxdAUmQe5llRT20WLEw3XKD2BI6bpDD0HBeQ1zAOV0I3uFl+T0oOBG9m3wfLdw8Fkqb37RFfwesc9HIpkP7k1BWqouUgcaKiB8jsnmv5H4sucVwGyz1oG4mS0Hli7M7agQmgnJCswCIk+gUSeQnSRatOWsyeQSPX352q37rZRQJcggjZykHdQN3pb45O0Pls2c/ttWeaTRZOxZDRRY+IJSjfaEjrXe6dWlC1WrY8+LKXgmi1OGWiGkW++fvKpMBLP5qL6QIvt1Gu3wzU7EHrmdaBvdTuDQh6w9OciZHRfqnYLlgdGmXRsz7mXlRvkdj719lmmnrPeVoFHLef12syP5l7E4DsKhZuHLzc1OBbPCqUaHYzVIcxn7UvtyVABRf4+XD8pt1ojOX+lYbjwca01oyNwEF/9W1uZo6Lp9idkJAd+U/86FdcUxtbzltNnQ510Q8KwpE3g1jRXExxmu6g0WJpv9Z/GBRwWNNn/BEr0gfZUVOmOD/SeFEHvj5DRUZRgs1MGOGtf/mi/Vfn+9Px8+6lL///425by6Pa7GPn8Hw==);strokeColor=none;spacingTop=-3;spacingBottom=-3;spacingLeft=-3;spacingRight=-3;labelBackgroundColor=none;rounded=0;html=1;whiteSpace=wrap;" vertex="1" parent="UkyxxvgO4Va6mRZhKOwy-17">
          <mxGeometry width="56" height="53" as="geometry" />
        </mxCell>
        <mxCell id="UkyxxvgO4Va6mRZhKOwy-19" value="&lt;font style=&quot;font-size: 12px&quot;&gt;Shared Management/Control Plane&lt;br&gt;Workload Mobility&lt;/font&gt;" style="text;html=1;align=center;verticalAlign=middle;resizable=0;points=[];autosize=1;fontSize=15;fontStyle=1" vertex="1" parent="zyCjnop6QbWn4T4vvVL7-1">
          <mxGeometry x="197.5" y="131" width="210" height="40" as="geometry" />
        </mxCell>
        <mxCell id="UkyxxvgO4Va6mRZhKOwy-20" style="vsdxID=5;fillColor=none;gradientColor=none;labelBackgroundColor=none;rounded=0;strokeColor=none;html=1;whiteSpace=wrap;fontSize=15;" vertex="1" parent="zyCjnop6QbWn4T4vvVL7-1">
          <mxGeometry x="797.5" y="680" width="85" height="80" as="geometry" />
        </mxCell>
        <mxCell id="UkyxxvgO4Va6mRZhKOwy-21" style="vsdxID=6;fillColor=#000000;gradientColor=none;shape=stencil(pZbbboMwDIafhlvL2Dlx3XXvUal0oDGoKDu9/WAIrZCR4HIXwv+B7fyxnPDhVpyueUJ469rmNf8sz12R8FNCVNZF3pZdv0r4mPDh0rT5S9u81+fx+XoalMPqrfkYvvA1clqBdgNF+D3uKAPO/O48j0BV1neAzSC1M4AYnF4HUsQ9cgyEYoD042JKgdU6oBEczyujIc3WAcq8UkoBUkB2HVC4Q42gKFB2v5ZCfSQa0tP3HgYi5cTHxZPp/jeCd0WEcstAgVL6zhQDjkDx9jsllGs3ZbQxHDFgMsDQVfRKKgYiXW0DsOibuHSncWACh8Ze35QDKWDA0n5I/Y4JnLM4hw3AvErKO2nlIAt0f9bLphvxkt9DxUAkJHEOG4CYl7K+9wV+sDSGUB6JX5at7Oqne9SRtsUO7E7AEnAgHo071OFDinugX/wNcZeyqsYZ8P79cujrt8aBkY8/);strokeColor=none;spacingTop=-3;spacingBottom=-3;spacingLeft=-3;spacingRight=-3;labelBackgroundColor=none;rounded=0;html=1;whiteSpace=wrap;" vertex="1" parent="UkyxxvgO4Va6mRZhKOwy-20">
          <mxGeometry width="85" height="80" as="geometry" />
        </mxCell>
        <mxCell id="UkyxxvgO4Va6mRZhKOwy-22" value="ZCS Director" style="text;html=1;align=center;verticalAlign=middle;resizable=0;points=[];autosize=1;fontSize=15;fontStyle=1" vertex="1" parent="zyCjnop6QbWn4T4vvVL7-1">
          <mxGeometry x="785" y="770" width="110" height="20" as="geometry" />
        </mxCell>
      </root>
    </mxGraphModel>
  </diagram>
  <diagram id="ybUfuFw8ea-CHFbWOAjj" name="Logical Routing Detail">
    <mxGraphModel dx="2062" dy="1065" grid="1" gridSize="10" guides="1" tooltips="1" connect="1" arrows="1" fold="1" page="1" pageScale="1" pageWidth="1700" pageHeight="1100" math="0" shadow="0">
      <root>
        <mxCell id="7eDJe8UgWT6jdxHGijZa-0" />
        <mxCell id="7eDJe8UgWT6jdxHGijZa-1" parent="7eDJe8UgWT6jdxHGijZa-0" />
        <mxCell id="t1rqnOKn8YPt1P-S3waj-0" value="" style="pointerEvents=1;shadow=0;dashed=0;html=1;strokeColor=none;fillColor=#434445;aspect=fixed;labelPosition=center;verticalLabelPosition=bottom;verticalAlign=top;align=center;outlineConnect=0;shape=mxgraph.vvd.physical_upstream_router;fontColor=#FFFFFF;" parent="7eDJe8UgWT6jdxHGijZa-1" vertex="1">
          <mxGeometry x="510" y="280" width="90" height="90" as="geometry" />
        </mxCell>
        <mxCell id="t1rqnOKn8YPt1P-S3waj-1" value="" style="pointerEvents=1;shadow=0;dashed=0;html=1;strokeColor=none;fillColor=#434445;aspect=fixed;labelPosition=center;verticalLabelPosition=bottom;verticalAlign=top;align=center;outlineConnect=0;shape=mxgraph.vvd.physical_upstream_router;fontColor=#FFFFFF;" parent="7eDJe8UgWT6jdxHGijZa-1" vertex="1">
          <mxGeometry x="1080" y="280" width="90" height="90" as="geometry" />
        </mxCell>
        <mxCell id="DcmSvm7YLu4Xs5LXC8q1-0" value="&lt;font color=&quot;#000000&quot;&gt;&lt;b&gt;Zcs&amp;lt;City&amp;gt;&amp;lt;Az&amp;gt;Leaf-#&lt;/b&gt;&lt;br&gt;&amp;lt;Model&amp;gt;&lt;br&gt;&amp;lt;Management IP&amp;gt;&lt;br&gt;&amp;lt;Peer Networks&amp;gt;&lt;br&gt;&lt;/font&gt;" style="text;html=1;align=right;verticalAlign=middle;resizable=0;points=[];autosize=1;fontColor=#FFFFFF;" parent="7eDJe8UgWT6jdxHGijZa-1" vertex="1">
          <mxGeometry x="340" y="295" width="140" height="60" as="geometry" />
        </mxCell>
        <mxCell id="DcmSvm7YLu4Xs5LXC8q1-1" value="&lt;font color=&quot;#000000&quot;&gt;&lt;b&gt;Zcs&amp;lt;City&amp;gt;&amp;lt;Az&amp;gt;Leaf-#&lt;/b&gt;&lt;br&gt;&amp;lt;Model&amp;gt;&lt;br&gt;&amp;lt;Management IP&amp;gt;&lt;br&gt;&amp;lt;Peer Networks&amp;gt;&lt;br&gt;&lt;/font&gt;" style="text;html=1;align=left;verticalAlign=middle;resizable=0;points=[];autosize=1;fontColor=#FFFFFF;" parent="7eDJe8UgWT6jdxHGijZa-1" vertex="1">
          <mxGeometry x="1190" y="295" width="140" height="60" as="geometry" />
        </mxCell>
        <mxCell id="DcmSvm7YLu4Xs5LXC8q1-3" value="&lt;font color=&quot;#000000&quot;&gt;&lt;b&gt;zcs-city01-t0-excrouter-customer01&lt;br&gt;&lt;/b&gt;AS64650&lt;br&gt;2 VLANs, /31/126&lt;br&gt;&lt;/font&gt;" style="text;html=1;align=right;verticalAlign=middle;resizable=0;points=[];autosize=1;fontColor=#FFFFFF;" parent="7eDJe8UgWT6jdxHGijZa-1" vertex="1">
          <mxGeometry x="530" y="500" width="220" height="50" as="geometry" />
        </mxCell>
        <mxCell id="DcmSvm7YLu4Xs5LXC8q1-6" value="" style="pointerEvents=1;shadow=0;dashed=0;html=1;strokeColor=none;fillColor=#434445;aspect=fixed;labelPosition=center;verticalLabelPosition=bottom;verticalAlign=top;align=center;outlineConnect=0;shape=mxgraph.vvd.logical_distribution;fontColor=#FFFFFF;" parent="7eDJe8UgWT6jdxHGijZa-1" vertex="1">
          <mxGeometry x="765" y="490" width="80" height="80" as="geometry" />
        </mxCell>
        <mxCell id="DcmSvm7YLu4Xs5LXC8q1-7" value="" style="pointerEvents=1;shadow=0;dashed=0;html=1;strokeColor=none;fillColor=#434445;aspect=fixed;labelPosition=center;verticalLabelPosition=bottom;verticalAlign=top;align=center;outlineConnect=0;shape=mxgraph.vvd.logical_distribution;fontColor=#FFFFFF;" parent="7eDJe8UgWT6jdxHGijZa-1" vertex="1">
          <mxGeometry x="845" y="490" width="80" height="80" as="geometry" />
        </mxCell>
        <mxCell id="u0vn-zOakEVdDYgiWVnr-3" value="" style="pointerEvents=1;shadow=0;dashed=0;html=1;strokeColor=none;fillColor=#434445;aspect=fixed;labelPosition=center;verticalLabelPosition=bottom;verticalAlign=top;align=center;outlineConnect=0;shape=mxgraph.vvd.logical_distribution;fontColor=#FFFFFF;" parent="7eDJe8UgWT6jdxHGijZa-1" vertex="1">
          <mxGeometry x="765" y="640" width="80" height="80" as="geometry" />
        </mxCell>
        <mxCell id="u0vn-zOakEVdDYgiWVnr-4" value="&lt;font color=&quot;#000000&quot;&gt;&lt;b&gt;zcs-customer01-t1-router-01&lt;/b&gt;&lt;br&gt;1 or more &lt;i&gt;&lt;b&gt;vn-segments&lt;/b&gt;&lt;br&gt;&lt;/i&gt;&lt;i&gt;N-S Firewalling&lt;br&gt;&lt;/i&gt;Site-to-Site Tunnels&lt;br&gt;&lt;/font&gt;" style="text;html=1;align=right;verticalAlign=middle;resizable=0;points=[];autosize=1;fontColor=#FFFFFF;" parent="7eDJe8UgWT6jdxHGijZa-1" vertex="1">
          <mxGeometry x="570" y="650" width="180" height="60" as="geometry" />
        </mxCell>
        <mxCell id="u0vn-zOakEVdDYgiWVnr-5" value="" style="pointerEvents=1;shadow=0;dashed=0;html=1;strokeColor=none;fillColor=#434445;aspect=fixed;labelPosition=center;verticalLabelPosition=bottom;verticalAlign=top;align=center;outlineConnect=0;shape=mxgraph.vvd.logical_distribution;fontColor=#FFFFFF;" parent="7eDJe8UgWT6jdxHGijZa-1" vertex="1">
          <mxGeometry x="845" y="640" width="80" height="80" as="geometry" />
        </mxCell>
        <mxCell id="_eBfcKK7cpbGecScrmHG-0" value="" style="endArrow=classic;startArrow=classic;html=1;fontColor=#FFFFFF;" parent="7eDJe8UgWT6jdxHGijZa-1" edge="1">
          <mxGeometry width="50" height="50" relative="1" as="geometry">
            <mxPoint x="960" y="470" as="sourcePoint" />
            <mxPoint x="960" y="740" as="targetPoint" />
          </mxGeometry>
        </mxCell>
        <mxCell id="_eBfcKK7cpbGecScrmHG-1" value="&lt;div&gt;&lt;b style=&quot;color: rgb(0 , 0 , 0)&quot;&gt;Consolidated Edge Transport Cluster&lt;/b&gt;&lt;/div&gt;&lt;font color=&quot;#000000&quot;&gt;&lt;b&gt;zcs-city01-etc-customer01&lt;/b&gt;&lt;/font&gt;" style="text;html=1;align=left;verticalAlign=middle;resizable=0;points=[];autosize=1;fontColor=#FFFFFF;" parent="7eDJe8UgWT6jdxHGijZa-1" vertex="1">
          <mxGeometry x="970" y="590" width="230" height="30" as="geometry" />
        </mxCell>
      </root>
    </mxGraphModel>
  </diagram>
</mxfile>
